<?xml version="1.0" encoding="UTF-8"?>
<svg xmlns="http://www.w3.org/2000/svg" viewBox="0 0 1120 620" width="1120" height="620" font-family="Helvetica, Arial, sans-serif">
  <rect x="0" y="0" width="1120" height="620" fill="white" stroke="black"/>
  <text x="32" y="40" font-size="20" font-weight="bold">Marimba Frame Overview - Datum Plan</text>
  <text x="32" y="62" font-size="12" fill="#444">Concept frame for C3-C6. Final rail curves and spacing must be validated with real bar/tube diameters.</text>

  <line x1="120" y1="120" x2="1010" y2="120" stroke="#999" stroke-dasharray="6 4"/>
  <text x="120" y="108" font-size="11" fill="#555">player-side datum</text>

  <path d="M 150 240 C 360 215 640 215 950 245" fill="none" stroke="#7b4b26" stroke-width="20"/>
  <path d="M 150 360 C 360 330 650 330 950 370" fill="none" stroke="#7b4b26" stroke-width="20"/>
  <text x="860" y="226" font-size="12">treble rail follows node_1 path</text>
  <text x="850" y="402" font-size="12">bass rail follows node_2 path</text>

  <g fill="#f7ead7" stroke="#222">
    <rect x="145" y="176" width="150" height="22" transform="rotate(-4 145 176)"/>
    <rect x="205" y="208" width="140" height="22" transform="rotate(-3 205 208)"/>
    <rect x="275" y="176" width="128" height="21" transform="rotate(-2 275 176)"/>
    <rect x="335" y="208" width="118" height="21" transform="rotate(-1 335 208)"/>
    <rect x="405" y="176" width="108" height="20"/>
    <rect x="465" y="208" width="100" height="20"/>
    <rect x="525" y="176" width="92" height="19"/>
    <rect x="580" y="208" width="86" height="19"/>
    <rect x="635" y="176" width="78" height="18"/>
    <rect x="685" y="208" width="72" height="18"/>
    <rect x="735" y="176" width="66" height="17"/>
    <rect x="780" y="208" width="60" height="17"/>
    <rect x="825" y="176" width="54" height="16"/>
    <rect x="865" y="208" width="50" height="16"/>
    <rect x="905" y="176" width="46" height="15"/>
  </g>

  <g fill="none" stroke="#1b4d66" stroke-width="2">
    <line x1="220" y1="410" x2="220" y2="540"/>
    <line x1="315" y1="410" x2="315" y2="515"/>
    <line x1="410" y1="410" x2="410" y2="495"/>
    <line x1="505" y1="410" x2="505" y2="475"/>
    <line x1="600" y1="410" x2="600" y2="458"/>
    <line x1="695" y1="410" x2="695" y2="445"/>
    <line x1="790" y1="410" x2="790" y2="435"/>
    <line x1="885" y1="410" x2="885" y2="430"/>
  </g>
  <text x="150" y="568" font-size="12" fill="#1b4d66">resonator centerlines below bars; exact bore and spacing TBD after sourcing</text>

  <rect x="32" y="475" width="360" height="92" fill="#fafafa" stroke="#333"/>
  <text x="48" y="500" font-size="12" font-weight="bold">Frame release checks</text>
  <text x="48" y="520" font-size="11">1. Bar supports land at nodes, not at equal end offsets.</text>
  <text x="48" y="538" font-size="11">2. Tubes clear bars and rails at full vibration.</text>
  <text x="48" y="556" font-size="11">3. Cross members remain removable during tuning.</text>
</svg>
